<?xml version="1.0" encoding="UTF-8" standalone="no"?>
<svg 
    xmlns="http://www.w3.org/2000/svg" 
    xmlns:xlink="http://www.w3.org/1999/xlink" 
    width="407.86279" height="44.316265" version="1.1" 
    viewBox="0 0 3194.7777 347.09122" 
    id="typewriter-img" 
    style="clip-rule:evenodd;fill-rule:evenodd;image-rendering:optimizeQuality;shape-rendering:geometricPrecision;text-rendering:geometricPrecision">
  <defs>
    <linearGradient id="iu" x1="2336.6001" x2="2336.6001" y1="1719.9" y2="1770.3" gradientUnits="userSpaceOnUse">
      <stop stop-color="#767676" offset="0" />
      <stop stop-color="#c0c1c0" offset="1" />
    </linearGradient>
    <linearGradient id="jm" x1="2343.2" x2="2343.2" y1="1479" y2="1494.7" gradientUnits="userSpaceOnUse">
      <stop stop-color="#fefefe" offset="0" />
      <stop stop-color="#929291" offset="1" />
    </linearGradient>
    <linearGradient id="iv" x1="2336.6001" x2="2336.6001" y1="1586.7" y2="1903.4" gradientUnits="userSpaceOnUse">
      <stop stop-color="#c0c1c0" offset="0" />
      <stop stop-color="#332f2f" offset="1" />
    </linearGradient>
    <linearGradient id="jl" x1="2343.2" x2="2343.2" y1="1477.7" y2="1496" gradientUnits="userSpaceOnUse">
      <stop stop-color="#767676" offset="0" />
      <stop stop-color="#fefefe" offset="1" />
    </linearGradient>
    <linearGradient id="jp" x1="2343.2" x2="2343.2" y1="1470.5" y2="1503.2" gradientUnits="userSpaceOnUse">
      <stop stop-color="#929291" offset="0" />
      <stop stop-color="#332f2f" offset="1" />
    </linearGradient>
    <linearGradient id="kh" x1="1342.8" x2="1342.8" y1="1473.1" y2="1488.8" gradientUnits="userSpaceOnUse" xlink:href="#iu" />
    <linearGradient id="kg" x1="1342.8" x2="1342.8" y1="1431.8" y2="1530.2" gradientUnits="userSpaceOnUse" xlink:href="#iv" />
    <linearGradient id="ke" x1="3552.2" x2="3552.2" y1="1431.8" y2="1530.2" gradientUnits="userSpaceOnUse" xlink:href="#iv" />
    <linearGradient id="kf" x1="3552.2" x2="3552.2" y1="1473.1" y2="1488.8" gradientUnits="userSpaceOnUse" xlink:href="#iu" />
    <radialGradient id="ji" cx="3756.2" cy="1477.3" r="48.183998" gradientUnits="userSpaceOnUse" xlink:href="#jb" />
    <radialGradient id="jh" cx="964.65997" cy="1477.3" r="48.183998" gradientUnits="userSpaceOnUse" xlink:href="#jb" />
    <radialGradient id="jb" cx="3756.2" cy="1477.3" r="48.183998" gradientUnits="userSpaceOnUse">
      <stop stop-color="#929594" offset="0" />
      <stop stop-color="#332f2f" offset="1" />
    </radialGradient>
  </defs>
  <g id="bail-bar" transform="translate(-762.88889,-1424.9529)">
    <polygon points="3840,1454 846,1454 846,1519 3840,1519 " style="fill:url(#jl)" />
    <polygon points="3840,1454 846,1454 846,1519 3840,1519 " style="fill:url(#jm)" />
    <polygon points="3840,1454 846,1454 846,1519 3840,1519 " style="fill:url(#jp)" />
    <path d="m 1410,1495 c 0,23 -15,42 -34,42 h -66 c -19,0 -34,-19 -34,-42 v -28 c 0,-23 15,-42 34,-42 h 66 c 19,0 34,19 34,42 z" style="fill:url(#kh)" />
    <path d="m 1410,1495 c 0,23 -15,42 -34,42 h -66 c -19,0 -34,-19 -34,-42 v -28 c 0,-23 15,-42 34,-42 h 66 c 19,0 34,19 34,42 z" style="fill:url(#kg)" />
    <path d="m 3619,1495 c 0,23 -15,42 -34,42 h -66 c -19,0 -34,-19 -34,-42 v -28 c 0,-23 15,-42 34,-42 h 66 c 19,0 34,19 34,42 z" style="fill:url(#kf)" />
    <path d="m 3809,1455 c 0,0 35,5 29,188 -5,161 -2,72 -2,129 20,-22 119,0 119,0 0,0 6,-220 0,-253 -7,-34 -38,-90 -83,-93 -96,-7 -104,28 -104,28 z" style="fill:url(#ji)" />
    <path d="m 3619,1495 c 0,23 -15,42 -34,42 h -66 c -19,0 -34,-19 -34,-42 v -28 c 0,-23 15,-42 34,-42 h 66 c 19,0 34,19 34,42 z" style="fill:url(#ke)" />
    <path d="m 3955,1751 c 0,-6 0,-12 1,-20 -29,-4 -65,-5 -77,7 0,-57 -3,33 2,-129 4,-134 -14,-173 -23,-184 -35,-1 -57,4 -70,10 v 1 l 41,1 c 0,0 35,5 29,188 -5,161 -2,72 -2,129 15,-16 70,-9 100,-4 z" style="fill:#eeeeef;fill-rule:nonzero" />
    <path d="m 912,1455 c 0,0 -35,5 -29,188 5,161 2,72 2,129 -20,-22 -119,0 -119,0 0,0 -7,-220 0,-253 7,-34 38,-90 83,-93 96,-7 104,28 104,28 z" style="fill:url(#jh)" />
    <path d="m 933,1436 c -13,-6 -35,-11 -70,-10 -10,11 -28,50 -23,184 5,161 2,72 2,129 -1,-1 -2,-2 -3,-2 0,3 1,6 1,10 12,1 21,4 26,9 0,-57 3,33 -2,-129 -6,-183 29,-188 29,-188 l 41,-1 v -1 z" style="fill:#eeeeef;fill-rule:nonzero" />
  </g>
</svg>
