<?xml version="1.0" encoding="UTF-8" standalone="no"?>
<svg 
    xmlns="http://www.w3.org/2000/svg" 
    xmlns:xlink="http://www.w3.org/1999/xlink" 
    width="458.20007" height="64.981728" version="1.1" viewBox="0 0 3589.0682 508.94603" 
    id="typewriter-img" 
    style="clip-rule:evenodd;fill-rule:evenodd;image-rendering:optimizeQuality;shape-rendering:geometricPrecision;text-rendering:geometricPrecision" >
  <defs>
    <linearGradient id="rb" x1="4111.2002" x2="4111.2002" y1="1569.5" y2="1775.4" gradientUnits="userSpaceOnUse">
      <stop stop-color="#707071" offset="0" />
      <stop stop-color="#525152" offset="1" />
    </linearGradient>
    <linearGradient id="rc" x1="4111.2002" x2="4111.2002" y1="1647.6" y2="1697.3" gradientUnits="userSpaceOnUse">
      <stop stop-color="#575657" offset="0" />
      <stop stop-color="#707071" offset="1" />
    </linearGradient>
    <linearGradient id="ra" x1="4111.2002" x2="4111.2002" y1="1615.7" y2="1729.3" gradientUnits="userSpaceOnUse">
      <stop stop-color="#525152" offset="0" />
      <stop stop-color="#4b4849" offset="1" />
    </linearGradient>
    <linearGradient id="rd" x1="4111.2002" x2="4111.2002" y1="1608.2" y2="1717.8" gradientUnits="userSpaceOnUse">
      <stop stop-color="#444242" offset="0" />
      <stop stop-color="#332f2f" offset="1" />
    </linearGradient>
    <linearGradient id="re" x1="4111.2002" x2="4111.2002" y1="1553.3" y2="1772.6" gradientUnits="userSpaceOnUse">
      <stop stop-color="#616262" offset="0" />
      <stop stop-color="#444242" offset="1" />
    </linearGradient>
    <linearGradient id="rf" x1="4111.2002" x2="4111.2002" y1="1641" y2="1684.9" gradientUnits="userSpaceOnUse">
      <stop stop-color="#332f2f" offset="0" />
      <stop stop-color="#616262" offset="1" />
    </linearGradient>
    <linearGradient id="iu" x1="2336.6001" x2="2336.6001" y1="1719.9" y2="1770.3" gradientUnits="userSpaceOnUse">
      <stop stop-color="#767676" offset="0" />
      <stop stop-color="#c0c1c0" offset="1" />
    </linearGradient>
    <linearGradient id="jn" x1="3954.5" x2="3954.5" y1="1659.4" y2="1673.1" gradientUnits="userSpaceOnUse" xlink:href="#iu" />
    <linearGradient id="jr" x1="2336.6001" x2="2336.6001" y1="1586.7" y2="1903.4" gradientUnits="userSpaceOnUse" xlink:href="#iv" />
    <linearGradient id="jq" x1="2336.6001" x2="2336.6001" y1="1719.9" y2="1770.3" gradientUnits="userSpaceOnUse" xlink:href="#iu" />
    <linearGradient id="iv" x1="2336.6001" x2="2336.6001" y1="1586.7" y2="1903.4" gradientUnits="userSpaceOnUse">
      <stop stop-color="#c0c1c0" offset="0" />
      <stop stop-color="#332f2f" offset="1" />
    </linearGradient>
    <linearGradient id="jo" x1="3954.5" x2="3954.5" y1="1623.2" y2="1709.3" gradientUnits="userSpaceOnUse" xlink:href="#iv" />
    <radialGradient id="jk" cx="726.27002" cy="1449.9" r="44.948002" gradientUnits="userSpaceOnUse">
      <stop stop-color="#a1a2a2" offset="0" />
      <stop stop-color="#a1a2a2" offset=".031372" />
      <stop stop-color="#393535" offset="1" />
    </radialGradient>
    <radialGradient id="jj" cx="719.64001" cy="1454.4" r="36.816002" gradientUnits="userSpaceOnUse">
      <stop stop-color="#d8dada" offset="0" />
      <stop stop-color="#494343" offset="1" />
    </radialGradient>
  </defs>
  <g id="roller" transform="translate(-592.93195,-1416.0809)">
    <polygon points="813,1565 813,1925 3860,1925 3860,1565 " style="fill:url(#jq)" />
    <polygon points="813,1565 813,1925 3860,1925 3860,1565 " style="fill:url(#jr)" />
    <polygon points="3811,1617 3811,1715 4098,1715 4098,1617 " style="fill:url(#jn)" />
    <polygon points="3811,1617 3811,1715 4098,1715 4098,1617 " style="fill:url(#jo)" />
    <path d="m 824,1459 c 5,-2 11,-3 16,-4 32,-15 60,-39 -67,-39 -189,0 -180,159 -180,159 l 72,2 c 0,0 13,-100 96,-115 15,-3 38,-3 64,-3 z" style="fill:url(#jk)" />
    <path d="m 658,1569 -57,-2 c 1,-17 6,-62 39,-96 30,-31 75,-47 134,-47 74,0 85,8 86,10 -1,0 -4,5 -23,14 -4,0 -10,2 -15,4 -4,-1 -11,-1 -17,-1 -19,0 -35,1 -46,3 -74,14 -96,91 -101,115 z" style="fill:url(#jj)" />
    <path d="m 4182,1839 c 0,11 -10,20 -22,20 h -97 c -12,0 -22,-9 -22,-20 v -352 c 0,-11 10,-20 22,-20 h 97 c 12,0 22,9 22,20 z" style="fill:#343434;fill-rule:nonzero" />
    <path d="m 4160,1846 h -97 c -5,0 -9,-3 -9,-7 v -352 c 0,-4 4,-7 9,-7 h 97 c 5,0 9,3 9,7 v 352 c 0,4 -4,7 -9,7 z" style="fill:url(#rf)" />
    <path d="m 4160,1846 h -97 c -5,0 -9,-3 -9,-7 v -352 c 0,-4 4,-7 9,-7 h 97 c 5,0 9,3 9,7 v 352 c 0,4 -4,7 -9,7 z" style="fill:url(#re)" />
    <path d="m 4160,1846 h -97 c -5,0 -9,-3 -9,-7 v -352 c 0,-4 4,-7 9,-7 h 97 c 5,0 9,3 9,7 v 352 c 0,4 -4,7 -9,7 z" style="fill:url(#rd)" />
    <path d="m 4052,1693 h 119 v -11 h -119 z m 0,76 h 119 v -11 h -119 z m 0,-38 h 119 v -11 h -119 z m 0,108 c 0,2 1,5 1,7 h 117 c 1,-2 1,-4 1,-7 v -5 h -119 z m 0,-31 h 119 v -11 h -119 z m 0,-317 v 11 h 119 v -11 z m 0,50 h 119 v -11 h -119 z m 0,38 h 119 v -11 h -119 z m 0,76 h 119 v -11 h -119 z m 0,-38 h 119 v -11 h -119 z" style="fill:#aeafaf;fill-rule:nonzero" />
    <path d="m 4052,1774 h 119 v -11 h -119 z m 0,-38 h 119 v -11 h -119 z m 0,-38 h 119 v -11 h -119 z m 0,142 c 0,4 1,8 4,11 h 112 c 2,-3 4,-7 4,-11 h -119 z m 0,-27 h 119 v -11 h -119 z m 0,-317 v 11 h 119 v -11 z m 0,50 h 119 v -11 h -119 z m 0,76 h 119 v -11 h -119 z m 0,-38 h 119 v -11 h -119 z m 0,76 h 119 v -11 h -119 z" style="fill:url(#rc)" />
    <path d="m 4052,1774 h 119 v -11 h -119 z m 0,-38 h 119 v -11 h -119 z m 0,-38 h 119 v -11 h -119 z m 0,142 c 0,4 1,8 4,11 h 112 c 2,-3 4,-7 4,-11 h -119 z m 0,-27 h 119 v -11 h -119 z m 0,-317 v 11 h 119 v -11 z m 0,50 h 119 v -11 h -119 z m 0,76 h 119 v -11 h -119 z m 0,-38 h 119 v -11 h -119 z m 0,76 h 119 v -11 h -119 z" style="fill:url(#rb)" />
    <path d="m 4052,1774 h 119 v -11 h -119 z m 0,-38 h 119 v -11 h -119 z m 0,-38 h 119 v -11 h -119 z m 0,142 c 0,4 1,8 4,11 h 112 c 2,-3 4,-7 4,-11 h -119 z m 0,-27 h 119 v -11 h -119 z m 0,-317 v 11 h 119 v -11 z m 0,50 h 119 v -11 h -119 z m 0,76 h 119 v -11 h -119 z m 0,-38 h 119 v -11 h -119 z m 0,76 h 119 v -11 h -119 z" style="fill:url(#ra)" />
  </g>
</svg>
