<?xml version="1.0" encoding="UTF-8" standalone="no"?>
<svg 
    xmlns="http://www.w3.org/2000/svg" 
    xmlns:xlink="http://www.w3.org/1999/xlink" 
    width="489.29404" height="161.87183" version="1.1" 
    viewBox="0 0 3832.6263 1267.8029" id="typewriter-img" 
    style="clip-rule:evenodd;fill-rule:evenodd;image-rendering:optimizeQuality;shape-rendering:geometricPrecision;text-rendering:geometricPrecision" >
  <defs>
    <linearGradient id="qo" x1="2447.3999" x2="2447.3999" y1="2785.1001" y2="2855.8" gradientUnits="userSpaceOnUse" xlink:href="#iz" gradientTransform="matrix(1,0,0,0.55553658,0.00289609,860.4771)" />
    <linearGradient id="qp" x1="2447.3999" x2="2447.3999" y1="2679.1001" y2="2961.8" gradientUnits="userSpaceOnUse" xlink:href="#iy" gradientTransform="matrix(1,0,0,0.55553658,0.00289609,860.4771)" />
    <linearGradient id="qq" x1="2449.2" x2="2449.2" y1="2511.3" y2="3129.8" gradientUnits="userSpaceOnUse" xlink:href="#je" gradientTransform="matrix(1,0,0,0.56824983,0.00205173,825.07553)" />
    <linearGradient id="qr" x1="2449.2" x2="2449.2" y1="2383.8999" y2="3257.2" gradientUnits="userSpaceOnUse" gradientTransform="matrix(1,0,0,0.56824983,0.00205173,825.07553)">
      <stop stop-color="#383434" offset="0" />
      <stop stop-color="#403d3d" offset="1" />
    </linearGradient>
    <linearGradient id="qu" x1="2449.2" x2="2449.2" y1="2675" y2="2966.1001" gradientUnits="userSpaceOnUse" xlink:href="#iy" gradientTransform="matrix(1,0,0,0.56824981,0.00205173,825.07563)" />
    <linearGradient id="qs" x1="2449.2" x2="2449.2" y1="2784.2" y2="2856.8999" gradientUnits="userSpaceOnUse" gradientTransform="matrix(1,0,0,0.56824983,0.00205173,825.07553)">
      <stop stop-color="#a1a2a2" offset="0" />
      <stop stop-color="#383434" offset="1" />
    </linearGradient>
    <linearGradient id="qt" x1="2449.2" x2="2449.2" y1="2802.3999" y2="2838.7" gradientUnits="userSpaceOnUse" xlink:href="#iz" gradientTransform="matrix(1,0,0,0.56824983,0.00205173,825.07553)" />
    <linearGradient id="qn" x1="2447.3999" x2="2447.3999" y1="2785.1001" y2="2855.8" gradientUnits="userSpaceOnUse" gradientTransform="matrix(1,0,0,0.55553658,0.00289609,860.4771)">
      <stop stop-color="#a1a2a2" offset="0" />
      <stop stop-color="#3b3838" offset="1" />
    </linearGradient>
    <linearGradient id="qm" x1="2447.3999" x2="2447.3999" y1="2555.3999" y2="3085.5" gradientUnits="userSpaceOnUse" gradientTransform="matrix(1,0,0,0.55553658,0.00289609,860.4771)">
      <stop stop-color="#3b3838" offset="0" />
      <stop stop-color="#332f2f" offset="1" />
    </linearGradient>
    <linearGradient id="pu" x1="2377.7" x2="2354.3" y1="1986.6" y2="2145" gradientUnits="userSpaceOnUse" xlink:href="#ix" />
    <linearGradient id="qf" x1="2383.7" x2="2348.2" y1="2062.7" y2="2359.2" gradientUnits="userSpaceOnUse" xlink:href="#ix" />
    <linearGradient id="qg" x1="2374.8" x2="2357.1001" y1="2136.8" y2="2285.1001" gradientUnits="userSpaceOnUse" xlink:href="#iq" />
    <linearGradient id="pv" x1="2372.3999" x2="2359.6001" y1="2022.2" y2="2109.3999" gradientUnits="userSpaceOnUse" xlink:href="#iq" />
    <linearGradient id="qh" x1="2375.7" x2="2356.2" y1="2129.3999" y2="2292.5" gradientUnits="userSpaceOnUse" xlink:href="#ip" />
    <linearGradient id="qi" x1="2374.8" x2="2357.1001" y1="2136.8" y2="2285.1001" gradientUnits="userSpaceOnUse" xlink:href="#ir" />
    <linearGradient id="ql" x1="2447.3999" x2="2447.3999" y1="2749.8" y2="2891.1001" gradientUnits="userSpaceOnUse" xlink:href="#jd" gradientTransform="matrix(1,0,0,0.55553658,0.00289609,860.4771)" />
    <linearGradient id="qk" x1="2447.3999" x2="2447.3999" y1="2431.7" y2="3209.2" gradientUnits="userSpaceOnUse" xlink:href="#jd" gradientTransform="matrix(1,0,0,0.55553658,0.00289609,861.47972)" />
    <linearGradient id="qe" x1="2374.5" x2="2357.5" y1="2078.3" y2="2193.6001" gradientUnits="userSpaceOnUse" xlink:href="#ir" />
    <linearGradient id="pw" x1="2372.3999" x2="2359.5" y1="2022.2" y2="2109.3999" gradientUnits="userSpaceOnUse" xlink:href="#ip" />
    <linearGradient id="px" x1="2372.3999" x2="2359.6001" y1="2022.2" y2="2109.3999" gradientUnits="userSpaceOnUse" xlink:href="#ir" />
    <linearGradient id="qd" x1="2375.3999" x2="2356.6001" y1="2072.5" y2="2199.3" gradientUnits="userSpaceOnUse" xlink:href="#ip" />
    <linearGradient id="py" x1="2183.2" x2="2548.8" y1="2082.1001" y2="2082.1001" gradientUnits="userSpaceOnUse">
      <stop stop-color="#bababa" offset="0" />
      <stop stop-color="#515050" offset="1" />
    </linearGradient>
    <linearGradient id="pz" x1="2183.2" x2="2548.8" y1="2082.1001" y2="2082.1001" gradientUnits="userSpaceOnUse">
      <stop stop-color="#423f3f" offset="0" />
      <stop stop-color="#bababa" offset="1" />
    </linearGradient>
    <linearGradient id="qc" x1="2374.5" x2="2357.5" y1="2078.3" y2="2193.6001" gradientUnits="userSpaceOnUse" xlink:href="#iq" />
    <linearGradient id="qa" x1="2265.5" x2="2466.5" y1="2082.1001" y2="2082.1001" gradientUnits="userSpaceOnUse">
      <stop stop-color="#b1b2b2" offset="0" />
      <stop stop-color="#423f3f" offset="1" />
    </linearGradient>
    <linearGradient id="qb" x1="2383" x2="2349" y1="2020.6" y2="2251.2" gradientUnits="userSpaceOnUse" xlink:href="#ix" />
    <linearGradient id="ir" x1="2372.3999" x2="2359.6001" y1="2022.2" y2="2109.3999" gradientUnits="userSpaceOnUse">
      <stop stop-color="#b1b2b2" offset="0" />
      <stop stop-color="#fefefe" offset="1" />
    </linearGradient>
    <linearGradient id="jy" x1="3682.6001" x2="3797.7" y1="1942.3" y2="1942.3" gradientUnits="userSpaceOnUse" xlink:href="#it" />
    <linearGradient id="iy" x1="2449.2" x2="2449.2" y1="2675" y2="2966.1001" gradientUnits="userSpaceOnUse">
      <stop stop-color="#332f2f" offset="0" />
      <stop stop-color="#4e4c4d" offset="1" />
    </linearGradient>
    <linearGradient id="it" x1="991.09998" x2="1019" y1="1807.3" y2="1807.3" gradientUnits="userSpaceOnUse">
      <stop stop-color="#5b5b5b" offset="0" />
      <stop stop-color="#4e4c4e" offset="1" />
    </linearGradient>
    <linearGradient id="is" x1="991.09998" x2="1019" y1="1807.3" y2="1807.3" gradientUnits="userSpaceOnUse">
      <stop stop-color="#383434" offset="0" />
      <stop stop-color="#5b5b5b" offset="1" />
    </linearGradient>
    <linearGradient id="iq" x1="2372.3999" x2="2359.6001" y1="2022.2" y2="2109.3999" gradientUnits="userSpaceOnUse">
      <stop stop-color="#959696" offset="0" />
      <stop stop-color="#c0c1c0" offset="1" />
    </linearGradient>
    <linearGradient id="ip" x1="2375.3999" x2="2356.6001" y1="2072.5" y2="2199.3" gradientUnits="userSpaceOnUse">
      <stop stop-color="#fefefe" offset="0" />
      <stop stop-color="#959696" offset="1" />
    </linearGradient>
    <linearGradient id="js" x1="3707.6001" x2="3756.3999" y1="1807.3" y2="1807.3" gradientUnits="userSpaceOnUse" xlink:href="#io" />
    <linearGradient id="jt" x1="3693.6001" x2="3770.3999" y1="1807.3" y2="1807.3" gradientUnits="userSpaceOnUse" xlink:href="#iw" />
    <linearGradient id="jw" x1="3646.7" x2="3833.6001" y1="1942.3" y2="1942.3" gradientUnits="userSpaceOnUse" xlink:href="#io" />
    <linearGradient id="jx" x1="3582" x2="3898.3999" y1="1942.3" y2="1942.3" gradientUnits="userSpaceOnUse" xlink:href="#iw" />
    <linearGradient id="jv" x1="3718.1001" x2="3746" y1="1807.3" y2="1807.3" gradientUnits="userSpaceOnUse" xlink:href="#is" />
    <linearGradient id="iz" x1="2447.3999" x2="2447.3999" y1="2785.1001" y2="2855.8" gradientUnits="userSpaceOnUse">
      <stop stop-color="#4e4c4d" offset="0" />
      <stop stop-color="#a1a2a2" offset="1" />
    </linearGradient>
    <linearGradient id="io" x1="3707.6001" x2="3756.3999" y1="1807.3" y2="1807.3" gradientUnits="userSpaceOnUse">
      <stop stop-color="#332f2f" offset="0" />
      <stop stop-color="#8d8d8d" offset="1" />
    </linearGradient>
    <linearGradient id="je" x1="2449.2" x2="2449.2" y1="2511.3" y2="3129.8" gradientUnits="userSpaceOnUse">
      <stop stop-color="#403d3d" offset="0" />
      <stop stop-color="#707071" offset="1" />
    </linearGradient>
    <linearGradient id="ix" x1="2383" x2="2349" y1="2020.6" y2="2251.2" gradientUnits="userSpaceOnUse">
      <stop stop-color="#c0c1c0" offset="0" />
      <stop stop-color="#515050" offset="1" />
    </linearGradient>
    <linearGradient id="jd" x1="2447.3999" x2="2447.3999" y1="2431.7" y2="3209.2" gradientUnits="userSpaceOnUse">
      <stop stop-color="#342f2f" offset="0" />
      <stop stop-color="#342f2f" offset="1" />
    </linearGradient>
    <linearGradient id="iw" x1="966.69" x2="1043.4" y1="1807.3" y2="1807.3" gradientUnits="userSpaceOnUse">
      <stop stop-color="#4e4c4e" offset="0" />
      <stop stop-color="#332f2f" offset="1" />
    </linearGradient>
    <linearGradient id="ju" x1="3718.1001" x2="3746" y1="1807.3" y2="1807.3" gradientUnits="userSpaceOnUse" xlink:href="#it" />
    <linearGradient id="jz" x1="3682.6001" x2="3797.7" y1="1942.3" y2="1942.3" gradientUnits="userSpaceOnUse" xlink:href="#is" />
    <linearGradient id="ki" x1="2294.2" x2="2417.5" y1="1836.8" y2="1872.4" gradientUnits="userSpaceOnUse" xlink:href="#ix" />
    <linearGradient id="kn" x1="855" x2="1171.4" y1="1942.3" y2="1942.3" gradientUnits="userSpaceOnUse" xlink:href="#iw" />
    <linearGradient id="kl" x1="2325" x2="2386.7" y1="1845.7" y2="1863.5" gradientUnits="userSpaceOnUse" xlink:href="#ir" />
    <linearGradient id="km" x1="919.71997" x2="1106.7" y1="1942.3" y2="1942.3" gradientUnits="userSpaceOnUse" xlink:href="#io" />
    <linearGradient id="kk" x1="2322" x2="2389.8" y1="1844.8" y2="1864.4" gradientUnits="userSpaceOnUse" xlink:href="#ip" />
    <linearGradient id="ka" x1="982.39001" x2="1027.7" y1="1807.3" y2="1807.3" gradientUnits="userSpaceOnUse" xlink:href="#io" />
    <linearGradient id="kb" x1="966.69" x2="1043.4" y1="1807.3" y2="1807.3" gradientUnits="userSpaceOnUse" xlink:href="#iw" />
    <linearGradient id="kc" x1="991.09998" x2="1019" y1="1807.3" y2="1807.3" gradientUnits="userSpaceOnUse" xlink:href="#it" />
    <linearGradient id="kd" x1="991.09998" x2="1019" y1="1807.3" y2="1807.3" gradientUnits="userSpaceOnUse" xlink:href="#is" />
    <linearGradient id="kj" x1="2325" x2="2386.7" y1="1845.7" y2="1863.5" gradientUnits="userSpaceOnUse" xlink:href="#iq" />
    <linearGradient id="ko" x1="955.66998" x2="1070.7" y1="1942.3" y2="1942.3" gradientUnits="userSpaceOnUse" xlink:href="#it" />
    <linearGradient id="kp" x1="955.66998" x2="1070.7" y1="1942.3" y2="1942.3" gradientUnits="userSpaceOnUse" xlink:href="#is" />
    <radialGradient id="jg" cx="1743.1" cy="1950.8" r="11.127" gradientUnits="userSpaceOnUse" xlink:href="#ja" />
    <radialGradient id="jf" cx="3038.1001" cy="1950.8" r="11.127" gradientUnits="userSpaceOnUse" xlink:href="#ja" />
    <radialGradient id="ja" cx="1743.1" cy="1950.8" r="11.127" gradientUnits="userSpaceOnUse">
      <stop stop-color="#fefefe" offset="0" />
      <stop stop-color="#332f2f" offset="1" />
    </radialGradient>
  </defs>
  <g id="bottom" transform="translate(-497.00205,-1674.0809)">
    <g id="body">
      <path d="m 879.00205,1911.0009 c 0,0 -228,140.9261 -228,177.8624 0,36.9363 25,240.3695 16,277.874 -42,180.7034 -160,409.7081 -170,493.2408 13,40.914 42,84.6693 212,81.828 H 4030.0021 c 0,0 372,0 287,-174.4527 -85,-174.4527 -209,-385.2734 -209,-418.8 0,-33.5267 39,-233.5507 26,-263.0996 -13,-29.549 -202,-163.0877 -202,-163.0877 z" style="fill:url(#qu);stroke-width:0.75382346" />
      <path d="m 879.00205,1911.0009 c 0,0 -228,140.926 -228,177.8622 0,36.9363 25,240.3697 16,277.8742 -42,180.7034 -160,409.7081 -170,493.2408 13,40.914 42,84.6693 212,81.828 H 4030.0021 c 0,0 372,0 287,-174.4527 -85,-174.4527 -209,-385.2734 -209,-418.8001 0,-33.5267 39,-233.5507 26,-263.0997 -13,-29.549 -202,-163.0877 -202,-163.0877 z" style="fill:url(#qt);stroke-width:0.75382346" />
      <path d="m 879.00205,1911.0009 c 0,0 -228,140.926 -228,177.8622 0,36.9363 25,240.3697 16,277.8742 -42,180.7034 -160,409.7081 -170,493.2408 13,40.914 42,84.6693 212,81.828 H 4030.0021 c 0,0 372,0 287,-174.4527 -85,-174.4527 -209,-385.2734 -209,-418.8001 0,-33.5267 39,-233.5507 26,-263.0997 -13,-29.549 -202,-163.0877 -202,-163.0877 z" style="fill:url(#qs);stroke-width:0.75382346" />
      <path d="m 879.00205,1911.0009 c 0,0 -228,140.926 -228,177.8622 0,36.9363 25,240.3697 16,277.8742 -42,180.7034 -160,409.7081 -170,493.2408 13,40.914 42,84.6693 212,81.828 H 4030.0021 c 0,0 372,0 287,-174.4527 -85,-174.4527 -209,-385.2734 -209,-418.8001 0,-33.5267 39,-233.5507 26,-263.0997 -13,-29.549 -202,-163.0877 -202,-163.0877 z" style="fill:url(#qr);stroke-width:0.75382346" />
      <path d="m 879.00205,1911.0009 c 0,0 -228,140.926 -228,177.8622 0,36.9363 25,240.3697 16,277.8742 -42,180.7034 -160,409.7081 -170,493.2408 13,40.914 42,84.6693 212,81.828 H 4030.0021 c 0,0 372,0 287,-174.4527 -85,-174.4527 -209,-385.2734 -209,-418.8001 0,-33.5267 39,-233.5507 26,-263.0997 -13,-29.549 -202,-163.0877 -202,-163.0877 z" style="fill:url(#qq);stroke-width:0.75382346" />
      <path d="m 951.0029,1936.5514 c 0,0 -218,133.8844 -218,168.8832 0,34.9988 24,228.3255 16,263.8798 -40,171.6608 -152,388.8756 -162,468.3174 12,38.8875 40,80.5528 202,77.2196 h 3165 c 0,0 354,0 274,-165.5499 -81,-165.5499 -199,-366.0986 -199,-397.7642 0,-31.6656 37,-221.6591 25,-249.9915 -12,-28.3324 -193,-154.9947 -193,-154.9947 l -2910,-10.5552 z" style="fill:url(#qp);stroke-width:0.74534327" />
      <path d="m 951.0029,1936.5514 c 0,0 -218,133.8844 -218,168.8832 0,34.9988 24,228.3255 16,263.8798 -40,171.6608 -152,388.8756 -162,468.3174 12,38.8875 40,80.5528 202,77.2196 h 3165 c 0,0 354,0 274,-165.5499 -81,-165.5499 -199,-366.0986 -199,-397.7642 0,-31.6656 37,-221.6591 25,-249.9915 -12,-28.3324 -193,-154.9947 -193,-154.9947 l -2910,-10.5552 z" style="fill:url(#qo);stroke-width:0.74534327" />
      <path d="m 951.0029,1936.5514 c 0,0 -218,133.8844 -218,168.8832 0,34.9988 24,228.3255 16,263.8798 -40,171.6608 -152,388.8756 -162,468.3174 12,38.8875 40,80.5528 202,77.2196 h 3165 c 0,0 354,0 274,-165.5499 -81,-165.5499 -199,-366.0986 -199,-397.7642 0,-31.6656 37,-221.6591 25,-249.9915 -12,-28.3324 -193,-154.9947 -193,-154.9947 l -2910,-10.5552 z" style="fill:url(#qn);stroke-width:0.74534327" />
      <path d="m 951.0029,1936.5514 c 0,0 -218,133.8844 -218,168.8832 0,34.9988 24,228.3255 16,263.8798 -40,171.6608 -152,388.8756 -162,468.3174 12,38.8875 40,80.5528 202,77.2196 h 3165 c 0,0 354,0 274,-165.5499 -81,-165.5499 -199,-366.0986 -199,-397.7642 0,-31.6656 37,-221.6591 25,-249.9915 -12,-28.3324 -193,-154.9947 -193,-154.9947 l -2910,-10.5552 z" style="fill:url(#qm);stroke-width:0.74534327" />
      <path d="m 951.0029,1936.5514 c 0,0 -218,133.8844 -218,168.8832 0,34.9988 24,228.3255 16,263.8798 -40,171.6608 -152,388.8756 -162,468.3174 12,38.8875 40,80.5528 202,77.2196 h 3165 c 0,0 354,0 274,-165.5499 -81,-165.5499 -199,-366.0986 -199,-397.7642 0,-31.6656 37,-221.6591 25,-249.9915 -12,-28.3324 -193,-154.9947 -193,-154.9947 l -2910,-10.5552 z" style="fill:url(#ql);stroke-width:0.74534327" />
      <path d="m 951.0029,1937.554 c 0,0 -218,133.8844 -218,168.8832 0,34.9988 24,228.3255 16,263.8798 -40,171.6608 -152,388.8756 -162,468.3174 12,38.8875 40,80.5528 202,77.2196 h 3165 c 0,0 354,0 274,-165.5499 -81,-165.5499 -199,-366.0986 -199,-397.7642 0,-31.6656 37,-221.6591 25,-249.9915 -12,-28.3324 -193,-154.9947 -193,-154.9947 l -2910,-10.5552 z" style="fill:url(#qk);stroke-width:0.74534327" />
    </g>
    <g id="keys">
      <path d="m 1566,1924 c 2,98 26,233 50,271 143,186 425,313 750,313 320,0 599,-123 744,-305 21,-50 57,-178 59,-279 z" style="fill-rule:nonzero" />
      <path d="m 1622,1924 c 5,318 336,574 744,574 408,0 739,-256 743,-574 z" style="fill:url(#qi)" />
      <path d="m 1622,1924 c 5,318 336,574 744,574 408,0 739,-256 743,-574 z" style="fill:url(#qh)" />
      <path d="m 1622,1924 c 5,318 336,574 744,574 408,0 739,-256 743,-574 z" style="fill:url(#qg)" />
      <path d="m 1622,1924 c 5,318 336,574 744,574 408,0 739,-256 743,-574 z" style="fill:url(#qf)" />
      <path d="m 1807,1924 c 9,235 255,424 559,424 304,0 550,-189 559,-424 z" style="fill:#898989" />
      <path d="m 1893,1935 c 48,169 241,296 473,296 231,0 424,-127 473,-296 h -945 z" style="fill:#332f2f" />
      <path d="m 2250,2491 c 4,1 9,1 13,1 l 41,-231 -13,-2 z m -144,-321 -181,216 12,6 179,-214 z m 56,41 -130,226 c 4,2 8,3 12,5 l 129,-224 z m 62,30 -84,230 c 4,1 9,2 13,3 l 83,-229 z m -32,-14 -107,229 c 4,1 8,3 13,4 l 106,-227 z m 65,25 -62,231 c 4,1 9,2 13,2 l 62,-230 z m -176,-105 -207,207 c 4,3 7,5 11,7 l 205,-205 z m 52,45 -155,222 12,6 154,-220 z m -142,-191 -322,117 4,12 322,-117 z m 745,12 322,117 5,-12 -322,-117 -4,12 z m 14,-45 -3,13 331,89 3,-13 z m -692,153 -233,196 c 3,3 7,6 10,8 l 231,-194 z m -21,-28 -259,181 9,9 257,-180 -7,-11 z m -34,-60 -305,142 c 2,4 5,7 7,11 l 303,-141 -6,-12 z m 15,31 -283,164 c 3,3 6,7 8,10 l 281,-162 -7,-11 z m 443,192 62,230 c 4,-1 9,-2 13,-2 l -62,-231 z m 179,-100 205,205 c 4,-2 7,-5 11,-7 l -207,-207 z m -26,23 179,214 12,-6 -181,-216 z m -28,21 154,220 12,-6 -155,-222 z m 77,-69 231,194 c 3,-3 7,-6 10,-8 l -233,-196 z m 21,-27 257,180 9,-9 -259,-181 -8,11 z m 36,-59 303,141 c 2,-4 5,-7 7,-11 l -305,-142 z m -16,30 281,162 c 3,-3 6,-7 8,-10 l -283,-163 z m -278,188 41,231 c 4,0 9,-1 13,-1 l -41,-232 z m -34,4 20,231 c 4,0 9,-1 13,-1 l -20,-232 -13,1 z m 164,-49 130,224 c 4,-2 8,-3 12,-5 l -130,-226 -11,7 z m -199,281 h 14 v -232 h -13 v 232 z m -55,-2 c 4,0 9,1 13,1 l 20,-231 -13,-1 -20,232 z m 191,-251 83,229 c 4,-1 9,-2 13,-3 l -84,-230 z m 32,-13 106,227 c 4,-1 8,-3 13,-4 l -107,-229 z" style="fill:#343434" />
      <path d="m 2453,1674 h -42 v 26 c 0,30 -25,55 -55,55 -30,0 -55,-25 -55,-55 v -26 h -43 c -10,0 -18,8 -18,18 v 343 h 230 v -343 c 0,-10 -8,-18 -18,-18 z m -94,256 c -71,0 -71,-110 0,-110 71,0 71,110 0,110 z" style="fill:url(#kl)" />
      <path d="m 1807,1924 c 9,235 255,424 559,424 304,0 550,-189 559,-424 z" style="fill:url(#qe)" />
      <path d="m 1807,1924 c 9,235 255,424 559,424 304,0 550,-189 559,-424 z" style="fill:url(#qd)" />
      <path d="m 1807,1924 c 9,235 255,424 559,424 304,0 550,-189 559,-424 z" style="fill:url(#qc)" />
      <path d="m 1807,1924 c 9,235 255,424 559,424 304,0 550,-189 559,-424 z" style="fill:url(#qb)" />
      <path d="m 1890,1924 c 43,188 239,329 476,329 236,0 433,-142 476,-329 h -951 z" style="fill:#494949;fill-rule:nonzero" />
      <path d="m 1909,1924 c 41,180 230,316 457,316 227,0 416,-136 457,-316 z" style="fill:url(#qa)" />
      <path d="m 1909,1924 c 41,180 230,316 457,316 227,0 416,-136 457,-316 z" style="fill:url(#pz)" />
      <path d="m 1909,1924 c 41,180 230,316 457,316 227,0 416,-136 457,-316 z" style="fill:url(#py)" />
      <path d="m 1956,1924 c 37,162 206,284 410,284 203,0 373,-122 410,-284 z" style="fill:url(#px)" />
      <path d="m 1956,1924 c 37,162 206,284 410,284 203,0 373,-122 410,-284 z" style="fill:url(#pw)" />
      <path d="m 1956,1924 c 37,162 206,284 410,284 203,0 373,-122 410,-284 z" style="fill:url(#pv)" />
      <path d="m 1956,1924 c 37,162 206,284 410,284 203,0 373,-122 410,-284 z" style="fill:url(#pu)" />
      <path d="m 2144,2015 c 0,22 -18,39 -39,39 -22,0 -39,-17 -39,-39 0,-22 18,-39 39,-39 22,0 39,18 39,39 z" />
      <path d="m 2624,2015 c 0,22 -18,39 -39,39 -22,0 -39,-17 -39,-39 0,-22 18,-39 39,-39 22,0 39,18 39,39 z" />
      <path d="m 2589,2050 c -22,0 -39,-17 -39,-39 0,-10 4,-18 10,-25 -8,7 -14,18 -14,30 0,22 18,39 39,39 12,0 22,-5 30,-14 -7,6 -16,9 -25,9 z m -519,-39 c 0,-10 4,-18 10,-25 -8,7 -14,18 -14,30 0,22 18,39 39,39 12,0 22,-5 30,-14 -7,6 -16,9 -25,9 -22,0 -39,-17 -39,-39 z" style="fill:#9b9b9b" />
      <path d="m 2453,1674 h -43 v 26 c 0,30 -25,55 -56,55 -30,0 -56,-25 -56,-55 v -26 h -43 c -10,0 -18,8 -18,18 v 347 h 233 v -347 c 0,-10 -8,-18 -18,-18 z m -95,259 c -72,0 -72,-111 0,-111 72,0 72,111 0,111 z" style="fill:#313131" />
      <path d="m 2453,1674 h -42 v 26 c 0,30 -25,55 -55,55 -30,0 -55,-25 -55,-55 v -26 h -43 c -10,0 -18,8 -18,18 v 343 h 230 v -343 c 0,-10 -8,-18 -18,-18 z m -94,256 c -71,0 -71,-110 0,-110 71,0 71,110 0,110 z" style="fill:url(#kk)" />
      <path d="m 2453,1674 h -42 v 26 c 0,30 -25,55 -55,55 -30,0 -55,-25 -55,-55 v -26 h -43 c -10,0 -18,8 -18,18 v 343 h 230 v -343 c 0,-10 -8,-18 -18,-18 z m -94,256 c -71,0 -71,-110 0,-110 71,0 71,110 0,110 z" style="fill:url(#kj)" />
      <path d="m 2453,1674 h -42 v 26 c 0,30 -25,55 -55,55 -30,0 -55,-25 -55,-55 v -26 h -43 c -10,0 -18,8 -18,18 v 343 h 230 v -343 c 0,-10 -8,-18 -18,-18 z m -94,256 c -71,0 -71,-110 0,-110 71,0 71,110 0,110 z" style="fill:url(#ki)" />
      <path d="m 1762,1978 c 0,-23 -18,-41 -41,-41 -23,0 -41,18 -41,41 0,23 18,41 41,41 23,0 41,-19 41,-41 z" style="fill:#848484;fill-rule:nonzero" />
      <path d="m 1764,1973 c 0,-22 -18,-40 -40,-40 -22,0 -40,18 -40,40 0,22 18,40 40,40 22,0 40,-18 40,-40 z" style="fill:url(#jg)" />
      <path d="m 3059,1973 c 0,-22 -18,-40 -40,-40 -22,0 -40,18 -40,40 0,22 18,40 40,40 22,0 40,-18 40,-40 z" style="fill:url(#jf)" />
    </g>
    <g id="ink-left">
      <path d="m 1371,1796 c 0,3 0,5 -1,8 -1,3 -2,5 -4,7 -2,2 -4,5 -7,7 -3,2 -6,5 -10,7 -4,2 -8,5 -12,7 -9,4 -20,9 -32,13 h -1 c -6,2 -12,4 -19,6 h -1 c -7,2 -14,4 -21,5 h -1 c -7,2 -15,3 -23,5 h -1 c -8,2 -17,3 -25,5 -8,1 -16,3 -25,4 -2,0 -3,0 -5,1 -18,2 -37,5 -56,6 h -3 c -21,2 -42,3 -65,4 -50,2 -99,2 -144,-1 -45,-2 -88,-7 -124,-13 -9,-2 -18,-3 -26,-5 -8,-2 -16,-4 -24,-5 h -1 c -10,-3 -19,-5 -27,-8 -2,-1 -4,-2 -6,-2 -8,-3 -16,-6 -22,-9 -6,-3 -11,-6 -15,-10 -2,-1 -3,-3 -5,-4 -1,-1 -2,-1 -2,-2 -2,-2 -4,-5 -5,-8 0,-1 -1,-1 -1,-2 0,-1 -1,-2 -1,-2 v -4 l 3,201 v 4 c 0,1 0,2 1,2 0,1 1,2 1,2 1,3 3,5 5,8 l 2,2 3,3 c 1,0 2,1 2,1 4,4 9,7 15,10 5,3 10,5 16,7 2,1 4,1 6,2 1,0 2,1 3,1 1,0 3,1 4,1 8,3 17,6 27,8 h 1 c 2,1 4,1 6,2 2,1 4,1 6,2 2,0 4,1 7,2 2,0 3,1 5,1 h 2 c 2,0 4,1 5,1 2,0 4,1 5,1 2,0 4,1 6,1 2,0 4,1 6,1 2,0 3,1 5,1 2,0 3,1 5,1 2,0 3,1 5,1 2,0 4,1 5,1 2,0 3,0 5,1 2,0 3,0 5,1 h 1 c 1,0 3,0 4,1 2,0 3,0 5,1 2,0 3,0 5,1 2,0 3,0 5,1 2,0 3,0 5,1 2,0 3,0 5,1 2,0 3,0 5,1 h 251 c 9,-1 17,-1 26,-2 h 5 c 7,-1 13,-1 20,-2 l 24,-3 c 4,-1 8,-1 12,-2 h 3 c 1,0 2,0 3,-1 2,0 3,0 5,-1 3,-1 7,-1 10,-2 3,-1 6,-1 9,-2 h 1 c 3,-1 6,-1 9,-2 3,-1 6,-1 9,-2 2,0 4,-1 6,-1 h 2 c 3,-1 5,-1 8,-2 2,-1 5,-1 7,-2 2,-1 5,-1 7,-2 h 1 c 2,0 3,-1 5,-1 2,0 4,-1 6,-1 2,0 4,-1 6,-2 2,0 4,-1 5,-2 1,0 3,-1 4,-1 1,0 3,-1 4,-1 1,0 3,-1 4,-1 1,0 3,-1 4,-1 1,0 1,0 2,-1 h 2 c 1,0 2,-1 4,-1 1,0 2,-1 3,-1 1,0 2,-1 3,-1 1,0 2,-1 3,-1 1,0 2,-1 3,-1 1,0 2,-1 3,-1 1,0 2,-1 3,-1 1,0 2,-1 3,-1 1,0 2,-1 3,-1 1,0 2,-1 2,-1 1,0 1,-1 2,-1 h 1 c 1,0 1,-1 2,-1 1,0 1,-1 2,-1 1,0 1,-1 2,-1 1,0 1,-1 2,-1 1,0 1,-1 2,-1 1,0 1,-1 2,-1 1,0 1,-1 2,-1 1,0 1,-1 2,-1 1,0 1,-1 2,-1 1,0 1,-1 2,-1 l 1,-1 1,-1 1,-1 1,-1 1,-1 1,-1 1,-1 1,-1 1,-1 1,-1 1,-1 1,-1 c 0,0 0,-1 1,-1 0,0 0,-1 1,-1 0,0 0,-1 1,-1 v -7 c -1,-67 -1,-134 -2,-202 z" style="fill:url(#kp)" />
      <path d="m 1371,1796 c 0,3 0,5 -1,8 -1,3 -2,5 -4,7 -2,2 -4,5 -7,7 -3,2 -6,5 -10,7 -4,2 -8,5 -12,7 -9,4 -20,9 -32,13 h -1 c -6,2 -12,4 -19,6 h -1 c -7,2 -14,4 -21,5 h -1 c -7,2 -15,3 -23,5 h -1 c -8,2 -17,3 -25,5 -8,1 -16,3 -25,4 -2,0 -3,0 -5,1 -18,2 -37,5 -56,6 h -3 c -21,2 -42,3 -65,4 -50,2 -99,2 -144,-1 -45,-2 -88,-7 -124,-13 -9,-2 -18,-3 -26,-5 -8,-2 -16,-4 -24,-5 h -1 c -10,-3 -19,-5 -27,-8 -2,-1 -4,-2 -6,-2 -8,-3 -16,-6 -22,-9 -6,-3 -11,-6 -15,-10 -2,-1 -3,-3 -5,-4 -1,-1 -2,-1 -2,-2 -2,-2 -4,-5 -5,-8 0,-1 -1,-1 -1,-2 0,-1 -1,-2 -1,-2 v -4 l 3,201 v 4 c 0,1 0,2 1,2 0,1 1,2 1,2 1,3 3,5 5,8 l 2,2 3,3 c 1,0 2,1 2,1 4,4 9,7 15,10 5,3 10,5 16,7 2,1 4,1 6,2 1,0 2,1 3,1 1,0 3,1 4,1 8,3 17,6 27,8 h 1 c 2,1 4,1 6,2 2,1 4,1 6,2 2,0 4,1 7,2 2,0 3,1 5,1 h 2 c 2,0 4,1 5,1 2,0 4,1 5,1 2,0 4,1 6,1 2,0 4,1 6,1 2,0 3,1 5,1 2,0 3,1 5,1 2,0 3,1 5,1 2,0 4,1 5,1 2,0 3,0 5,1 2,0 3,0 5,1 h 1 c 1,0 3,0 4,1 2,0 3,0 5,1 2,0 3,0 5,1 2,0 3,0 5,1 2,0 3,0 5,1 2,0 3,0 5,1 2,0 3,0 5,1 h 251 c 9,-1 17,-1 26,-2 h 5 c 7,-1 13,-1 20,-2 l 24,-3 c 4,-1 8,-1 12,-2 h 3 c 1,0 2,0 3,-1 2,0 3,0 5,-1 3,-1 7,-1 10,-2 3,-1 6,-1 9,-2 h 1 c 3,-1 6,-1 9,-2 3,-1 6,-1 9,-2 2,0 4,-1 6,-1 h 2 c 3,-1 5,-1 8,-2 2,-1 5,-1 7,-2 2,-1 5,-1 7,-2 h 1 c 2,0 3,-1 5,-1 2,0 4,-1 6,-1 2,0 4,-1 6,-2 2,0 4,-1 5,-2 1,0 3,-1 4,-1 1,0 3,-1 4,-1 1,0 3,-1 4,-1 1,0 3,-1 4,-1 1,0 1,0 2,-1 h 2 c 1,0 2,-1 4,-1 1,0 2,-1 3,-1 1,0 2,-1 3,-1 1,0 2,-1 3,-1 1,0 2,-1 3,-1 1,0 2,-1 3,-1 1,0 2,-1 3,-1 1,0 2,-1 3,-1 1,0 2,-1 3,-1 1,0 2,-1 2,-1 1,0 1,-1 2,-1 h 1 c 1,0 1,-1 2,-1 1,0 1,-1 2,-1 1,0 1,-1 2,-1 1,0 1,-1 2,-1 1,0 1,-1 2,-1 1,0 1,-1 2,-1 1,0 1,-1 2,-1 1,0 1,-1 2,-1 1,0 1,-1 2,-1 1,0 1,-1 2,-1 l 1,-1 1,-1 1,-1 1,-1 1,-1 1,-1 1,-1 1,-1 1,-1 1,-1 1,-1 1,-1 c 0,0 0,-1 1,-1 0,0 0,-1 1,-1 0,0 0,-1 1,-1 v -7 c -1,-67 -1,-134 -2,-202 z" style="fill:url(#ko)" />
      <path d="m 1371,1796 c 0,3 0,5 -1,8 -1,3 -2,5 -4,7 -2,2 -4,5 -7,7 -3,2 -6,5 -10,7 -4,2 -8,5 -12,7 -9,4 -20,9 -32,13 h -1 c -6,2 -12,4 -19,6 h -1 c -7,2 -14,4 -21,5 h -1 c -7,2 -15,3 -23,5 h -1 c -8,2 -17,3 -25,5 -8,1 -16,3 -25,4 -2,0 -3,0 -5,1 -18,2 -37,5 -56,6 h -3 c -21,2 -42,3 -65,4 -50,2 -99,2 -144,-1 -45,-2 -88,-7 -124,-13 -9,-2 -18,-3 -26,-5 -8,-2 -16,-4 -24,-5 h -1 c -10,-3 -19,-5 -27,-8 -2,-1 -4,-2 -6,-2 -8,-3 -16,-6 -22,-9 -6,-3 -11,-6 -15,-10 -2,-1 -3,-3 -5,-4 -1,-1 -2,-1 -2,-2 -2,-2 -4,-5 -5,-8 0,-1 -1,-1 -1,-2 0,-1 -1,-2 -1,-2 v -4 l 3,201 v 4 c 0,1 0,2 1,2 0,1 1,2 1,2 1,3 3,5 5,8 l 2,2 3,3 c 1,0 2,1 2,1 4,4 9,7 15,10 5,3 10,5 16,7 2,1 4,1 6,2 1,0 2,1 3,1 1,0 3,1 4,1 8,3 17,6 27,8 h 1 c 2,1 4,1 6,2 2,1 4,1 6,2 2,0 4,1 7,2 2,0 3,1 5,1 h 2 c 2,0 4,1 5,1 2,0 4,1 5,1 2,0 4,1 6,1 2,0 4,1 6,1 2,0 3,1 5,1 2,0 3,1 5,1 2,0 3,1 5,1 2,0 4,1 5,1 2,0 3,0 5,1 2,0 3,0 5,1 h 1 c 1,0 3,0 4,1 2,0 3,0 5,1 2,0 3,0 5,1 2,0 3,0 5,1 2,0 3,0 5,1 2,0 3,0 5,1 2,0 3,0 5,1 h 251 c 9,-1 17,-1 26,-2 h 5 c 7,-1 13,-1 20,-2 l 24,-3 c 4,-1 8,-1 12,-2 h 3 c 1,0 2,0 3,-1 2,0 3,0 5,-1 3,-1 7,-1 10,-2 3,-1 6,-1 9,-2 h 1 c 3,-1 6,-1 9,-2 3,-1 6,-1 9,-2 2,0 4,-1 6,-1 h 2 c 3,-1 5,-1 8,-2 2,-1 5,-1 7,-2 2,-1 5,-1 7,-2 h 1 c 2,0 3,-1 5,-1 2,0 4,-1 6,-1 2,0 4,-1 6,-2 2,0 4,-1 5,-2 1,0 3,-1 4,-1 1,0 3,-1 4,-1 1,0 3,-1 4,-1 1,0 3,-1 4,-1 1,0 1,0 2,-1 h 2 c 1,0 2,-1 4,-1 1,0 2,-1 3,-1 1,0 2,-1 3,-1 1,0 2,-1 3,-1 1,0 2,-1 3,-1 1,0 2,-1 3,-1 1,0 2,-1 3,-1 1,0 2,-1 3,-1 1,0 2,-1 3,-1 1,0 2,-1 2,-1 1,0 1,-1 2,-1 h 1 c 1,0 1,-1 2,-1 1,0 1,-1 2,-1 1,0 1,-1 2,-1 1,0 1,-1 2,-1 1,0 1,-1 2,-1 1,0 1,-1 2,-1 1,0 1,-1 2,-1 1,0 1,-1 2,-1 1,0 1,-1 2,-1 1,0 1,-1 2,-1 l 1,-1 1,-1 1,-1 1,-1 1,-1 1,-1 1,-1 1,-1 1,-1 1,-1 1,-1 1,-1 c 0,0 0,-1 1,-1 0,0 0,-1 1,-1 0,0 0,-1 1,-1 v -7 c -1,-67 -1,-134 -2,-202 z" style="fill:url(#kn)" />
      <path d="m 1371,1796 c 0,3 0,5 -1,8 -1,3 -2,5 -4,7 -2,2 -4,5 -7,7 -3,2 -6,5 -10,7 -4,2 -8,5 -12,7 -9,4 -20,9 -32,13 h -1 c -6,2 -12,4 -19,6 h -1 c -7,2 -14,4 -21,5 h -1 c -7,2 -15,3 -23,5 h -1 c -8,2 -17,3 -25,5 -8,1 -16,3 -25,4 -2,0 -3,0 -5,1 -18,2 -37,5 -56,6 h -3 c -21,2 -42,3 -65,4 -50,2 -99,2 -144,-1 -45,-2 -88,-7 -124,-13 -9,-2 -18,-3 -26,-5 -8,-2 -16,-4 -24,-5 h -1 c -10,-3 -19,-5 -27,-8 -2,-1 -4,-2 -6,-2 -8,-3 -16,-6 -22,-9 -6,-3 -11,-6 -15,-10 -2,-1 -3,-3 -5,-4 -1,-1 -2,-1 -2,-2 -2,-2 -4,-5 -5,-8 0,-1 -1,-1 -1,-2 0,-1 -1,-2 -1,-2 v -4 l 3,201 v 4 c 0,1 0,2 1,2 0,1 1,2 1,2 1,3 3,5 5,8 l 2,2 3,3 c 1,0 2,1 2,1 4,4 9,7 15,10 5,3 10,5 16,7 2,1 4,1 6,2 1,0 2,1 3,1 1,0 3,1 4,1 8,3 17,6 27,8 h 1 c 2,1 4,1 6,2 2,1 4,1 6,2 2,0 4,1 7,2 2,0 3,1 5,1 h 2 c 2,0 4,1 5,1 2,0 4,1 5,1 2,0 4,1 6,1 2,0 4,1 6,1 2,0 3,1 5,1 2,0 3,1 5,1 2,0 3,1 5,1 2,0 4,1 5,1 2,0 3,0 5,1 2,0 3,0 5,1 h 1 c 1,0 3,0 4,1 2,0 3,0 5,1 2,0 3,0 5,1 2,0 3,0 5,1 2,0 3,0 5,1 2,0 3,0 5,1 2,0 3,0 5,1 h 251 c 9,-1 17,-1 26,-2 h 5 c 7,-1 13,-1 20,-2 l 24,-3 c 4,-1 8,-1 12,-2 h 3 c 1,0 2,0 3,-1 2,0 3,0 5,-1 3,-1 7,-1 10,-2 3,-1 6,-1 9,-2 h 1 c 3,-1 6,-1 9,-2 3,-1 6,-1 9,-2 2,0 4,-1 6,-1 h 2 c 3,-1 5,-1 8,-2 2,-1 5,-1 7,-2 2,-1 5,-1 7,-2 h 1 c 2,0 3,-1 5,-1 2,0 4,-1 6,-1 2,0 4,-1 6,-2 2,0 4,-1 5,-2 1,0 3,-1 4,-1 1,0 3,-1 4,-1 1,0 3,-1 4,-1 1,0 3,-1 4,-1 1,0 1,0 2,-1 h 2 c 1,0 2,-1 4,-1 1,0 2,-1 3,-1 1,0 2,-1 3,-1 1,0 2,-1 3,-1 1,0 2,-1 3,-1 1,0 2,-1 3,-1 1,0 2,-1 3,-1 1,0 2,-1 3,-1 1,0 2,-1 3,-1 1,0 2,-1 2,-1 1,0 1,-1 2,-1 h 1 c 1,0 1,-1 2,-1 1,0 1,-1 2,-1 1,0 1,-1 2,-1 1,0 1,-1 2,-1 1,0 1,-1 2,-1 1,0 1,-1 2,-1 1,0 1,-1 2,-1 1,0 1,-1 2,-1 1,0 1,-1 2,-1 1,0 1,-1 2,-1 l 1,-1 1,-1 1,-1 1,-1 1,-1 1,-1 1,-1 1,-1 1,-1 1,-1 1,-1 1,-1 c 0,0 0,-1 1,-1 0,0 0,-1 1,-1 0,0 0,-1 1,-1 v -7 c -1,-67 -1,-134 -2,-202 z" style="fill:url(#km)" />
      <path d="m 967,1720 c 48,-2 96,-2 140,1 44,2 86,6 122,12 36,6 67,13 91,22 24,9 40,19 47,30 7,11 4,22 -8,33 -12,11 -33,21 -60,29 -28,9 -63,17 -104,23 -41,6 -87,10 -137,13 -50,2 -99,2 -144,-1 -45,-2 -88,-7 -124,-13 -36,-6 -67,-14 -90,-23 -23,-9 -38,-20 -44,-31 -6,-11 -1,-22 12,-33 13,-10 35,-20 63,-29 28,-9 63,-16 103,-22 40,-6 85,-10 133,-12 z" style="fill:#7f7f80" />
      <path d="m 969,1723 c 46,-2 92,-2 134,1 42,2 82,6 117,11 35,5 65,12 87,20 23,8 39,17 46,27 7,10 4,20 -8,30 -11,10 -31,19 -58,26 -27,8 -61,15 -100,20 -39,5 -83,9 -131,11 -48,2 -95,2 -138,-1 -44,-2 -84,-6 -119,-12 -35,-6 -65,-13 -87,-21 -22,-8 -37,-18 -42,-28 -5,-10 -1,-20 12,-29 13,-9 33,-18 61,-26 27,-8 61,-14 99,-19 38,-5 81,-9 128,-11 z" />
      <path d="m 970,1741 c 45,-2 90,-1 131,0 42,2 80,5 114,10 34,5 63,11 85,17 22,7 38,15 45,24 7,9 4,18 -7,26 -11,8 -31,16 -57,23 -26,7 -59,13 -97,18 -38,5 -82,8 -129,10 -47,2 -93,1 -135,-1 -43,-2 -82,-5 -117,-10 -34,-5 -63,-11 -85,-18 -22,-7 -36,-15 -41,-24 -5,-9 -1,-18 12,-26 12,-8 33,-16 59,-23 26,-7 59,-13 97,-17 37,-5 80,-8 125,-9 z" style="fill:#707070" />
      <path d="m 1012,1745 c -41,0 -73,8 -73,19 0,10 33,19 73,19 41,0 73,-8 73,-19 0,-10 -33,-19 -73,-19 z m -205,35 c -46,0 -83,11 -83,25 0,14 37,25 83,25 46,0 83,-11 83,-25 0,-14 -37,-25 -83,-25 z m 196,65 c -44,0 -79,10 -82,23 43,2 89,2 135,1 10,0 20,-1 29,-1 -5,-13 -39,-22 -82,-22 z m 206,-65 c -46,0 -83,11 -83,25 0,14 37,25 83,25 46,0 83,-11 83,-25 0,-14 -37,-25 -83,-25 z" style="fill-rule:nonzero" />
      <path d="m 1092,1776 v 2 c 0,1 -1,1 -1,2 l -2,2 c -1,1 -1,1 -2,1 -1,1 -2,1 -3,1 -2,1 -5,2 -8,3 -1,0 -3,1 -5,1 -2,0 -3,1 -5,1 -2,0 -4,1 -6,1 -2,0 -4,1 -6,1 -2,0 -4,1 -6,1 h -1 c -4,1 -9,1 -14,1 h -1 c -5,0 -10,1 -16,1 h -35 c -11,-1 -21,-2 -30,-3 -2,0 -4,-1 -6,-1 -2,0 -4,-1 -6,-1 -2,-1 -5,-1 -7,-2 h -2 c -2,-1 -4,-1 -5,-2 -1,-1 -3,-1 -4,-2 -1,0 -1,-1 -1,-1 -1,-1 -1,-1 -1,-2 v -2 l 1,44 v 1 c 0,1 1,1 1,2 l 1,1 1,1 h 1 c 1,1 2,2 4,2 1,1 2,1 4,2 h 3 c 2,1 4,1 7,2 h 96 c 2,0 4,0 6,-1 h 43 v -43 z" style="fill:url(#kd)" />
      <path d="m 1092,1776 v 2 c 0,1 -1,1 -1,2 l -2,2 c -1,1 -1,1 -2,1 -1,1 -2,1 -3,1 -2,1 -5,2 -8,3 -1,0 -3,1 -5,1 -2,0 -3,1 -5,1 -2,0 -4,1 -6,1 -2,0 -4,1 -6,1 -2,0 -4,1 -6,1 h -1 c -4,1 -9,1 -14,1 h -1 c -5,0 -10,1 -16,1 h -35 c -11,-1 -21,-2 -30,-3 -2,0 -4,-1 -6,-1 -2,0 -4,-1 -6,-1 -2,-1 -5,-1 -7,-2 h -2 c -2,-1 -4,-1 -5,-2 -1,-1 -3,-1 -4,-2 -1,0 -1,-1 -1,-1 -1,-1 -1,-1 -1,-2 v -2 l 1,44 v 1 c 0,1 1,1 1,2 l 1,1 1,1 h 1 c 1,1 2,2 4,2 1,1 2,1 4,2 h 3 c 2,1 4,1 7,2 h 96 c 2,0 4,0 6,-1 h 43 v -43 z" style="fill:url(#kc)" />
      <path d="m 1092,1776 v 2 c 0,1 -1,1 -1,2 l -2,2 c -1,1 -1,1 -2,1 -1,1 -2,1 -3,1 -2,1 -5,2 -8,3 -1,0 -3,1 -5,1 -2,0 -3,1 -5,1 -2,0 -4,1 -6,1 -2,0 -4,1 -6,1 -2,0 -4,1 -6,1 h -1 c -4,1 -9,1 -14,1 h -1 c -5,0 -10,1 -16,1 h -35 c -11,-1 -21,-2 -30,-3 -2,0 -4,-1 -6,-1 -2,0 -4,-1 -6,-1 -2,-1 -5,-1 -7,-2 h -2 c -2,-1 -4,-1 -5,-2 -1,-1 -3,-1 -4,-2 -1,0 -1,-1 -1,-1 -1,-1 -1,-1 -1,-2 v -2 l 1,44 v 1 c 0,1 1,1 1,2 l 1,1 1,1 h 1 c 1,1 2,2 4,2 1,1 2,1 4,2 h 3 c 2,1 4,1 7,2 h 96 c 2,0 4,0 6,-1 h 43 v -43 z" style="fill:url(#kb)" />
      <path d="m 1092,1776 v 2 c 0,1 -1,1 -1,2 l -2,2 c -1,1 -1,1 -2,1 -1,1 -2,1 -3,1 -2,1 -5,2 -8,3 -1,0 -3,1 -5,1 -2,0 -3,1 -5,1 -2,0 -4,1 -6,1 -2,0 -4,1 -6,1 -2,0 -4,1 -6,1 h -1 c -4,1 -9,1 -14,1 h -1 c -5,0 -10,1 -16,1 h -35 c -11,-1 -21,-2 -30,-3 -2,0 -4,-1 -6,-1 -2,0 -4,-1 -6,-1 -2,-1 -5,-1 -7,-2 h -2 c -2,-1 -4,-1 -5,-2 -1,-1 -3,-1 -4,-2 -1,0 -1,-1 -1,-1 -1,-1 -1,-1 -1,-2 v -2 l 1,44 v 1 c 0,1 1,1 1,2 l 1,1 1,1 h 1 c 1,1 2,2 4,2 1,1 2,1 4,2 h 3 c 2,1 4,1 7,2 h 96 c 2,0 4,0 6,-1 h 43 v -43 z" style="fill:url(#ka)" />
      <path d="m 994,1759 h 34 c 11,0 21,1 29,3 9,1 16,3 22,5 6,2 10,4 11,7 2,2 1,5 -2,7 -3,2 -8,4 -15,6 -7,2 -15,4 -25,5 -10,1 -21,2 -33,3 h -35 c -11,-1 -21,-2 -30,-3 -9,-1 -16,-3 -22,-5 -6,-2 -9,-4 -11,-7 -1,-2 0,-5 3,-7 3,-2 8,-4 15,-6 7,-2 15,-3 25,-5 10,-1 21,-2 32,-3 z" style="fill:#b1b1b1;fill-rule:nonzero" />
    </g>
    <g id="ink-right">
      <path d="m 4098,1796 c 0,3 0,5 -1,8 -1,3 -2,5 -4,7 -2,2 -4,5 -7,7 -3,2 -6,5 -10,7 -4,2 -8,5 -12,7 -9,4 -20,9 -32,13 h -1 c -6,2 -12,4 -19,6 -7,2 -14,4 -21,5 h -1 c -8,2 -15,3 -23,5 h -1 c -8,2 -17,3 -25,5 -8,1 -16,3 -25,4 -2,0 -3,0 -5,1 -18,2 -37,5 -56,6 h -3 c -21,2 -42,3 -65,4 -50,2 -99,2 -144,-1 -45,-2 -87,-7 -124,-13 -9,-2 -18,-3 -26,-5 h -1 c -8,-2 -16,-4 -23,-5 h -1 c -10,-3 -19,-5 -27,-8 -2,-1 -4,-2 -6,-2 -8,-3 -16,-6 -22,-9 -6,-3 -11,-6 -15,-10 -2,-1 -3,-3 -5,-4 -1,-1 -2,-1 -2,-2 -2,-2 -4,-5 -5,-8 0,-1 -1,-1 -1,-2 0,-1 -1,-2 -1,-2 v -4 l 3,201 v 4 c 0,1 0,2 1,2 0,1 1,2 1,2 1,3 3,5 5,8 l 2,2 3,3 c 1,0 2,1 2,1 4,4 9,7 15,10 5,3 10,5 16,7 2,1 4,1 6,2 1,0 2,1 3,1 1,0 3,1 4,1 8,3 17,6 27,8 h 1 c 2,1 4,1 6,2 2,1 4,1 6,2 2,0 4,1 7,2 2,0 3,1 5,1 h 2 c 2,0 4,1 5,1 2,0 4,1 6,1 2,0 4,1 6,1 2,0 4,1 6,1 2,0 3,1 5,1 2,0 3,1 5,1 2,0 3,1 5,1 2,0 4,1 5,1 2,0 3,0 5,1 2,0 3,0 5,1 h 1 c 1,0 3,0 4,1 2,0 3,0 5,1 2,0 3,0 5,1 2,0 3,0 5,1 2,0 3,0 5,1 2,0 3,0 5,1 2,0 3,0 5,1 h 252 c 9,-1 17,-1 26,-2 h 5 c 7,-1 13,-1 20,-2 l 24,-3 c 4,-1 8,-1 12,-2 h 2 c 1,0 2,0 3,-1 1,0 3,0 4,-1 3,-1 7,-1 10,-2 3,-1 6,-1 9,-2 h 1 c 3,-1 6,-1 9,-2 3,-1 6,-1 9,-2 2,0 4,-1 6,-1 h 2 c 3,-1 5,-1 8,-2 2,-1 5,-1 7,-2 2,-1 5,-1 7,-2 2,0 3,-1 5,-1 2,0 4,-1 6,-1 2,0 4,-1 6,-2 2,0 4,-1 5,-2 2,0 3,-1 5,-1 1,0 3,-1 4,-1 1,0 3,-1 4,-1 1,0 3,-1 4,-1 1,0 1,0 2,-1 h 2 c 1,0 2,-1 4,-1 1,0 2,-1 3,-1 1,0 2,-1 3,-1 1,0 2,-1 3,-1 1,0 2,-1 3,-1 1,0 2,-1 3,-1 1,0 2,-1 3,-1 1,0 2,-1 3,-1 1,0 2,-1 2,-1 1,0 2,-1 2,-1 1,0 1,-1 2,-1 h 1 c 1,0 1,-1 2,-1 1,0 1,-1 2,-1 1,0 1,-1 2,-1 1,0 1,-1 2,-1 1,0 1,-1 2,-1 1,0 1,-1 2,-1 1,0 1,-1 2,-1 1,0 1,-1 2,-1 1,0 1,-1 2,-1 1,0 1,-1 2,-1 l 1,-1 1,-1 1,-1 1,-1 1,-1 1,-1 1,-1 1,-1 1,-1 1,-1 1,-1 1,-1 c 0,0 0,-1 1,-1 0,0 0,-1 1,-1 0,0 0,-1 1,-1 v -7 c -1,-67 -1,-134 -2,-202 z" style="fill:url(#jz)" />
      <path d="m 4098,1796 c 0,3 0,5 -1,8 -1,3 -2,5 -4,7 -2,2 -4,5 -7,7 -3,2 -6,5 -10,7 -4,2 -8,5 -12,7 -9,4 -20,9 -32,13 h -1 c -6,2 -12,4 -19,6 -7,2 -14,4 -21,5 h -1 c -8,2 -15,3 -23,5 h -1 c -8,2 -17,3 -25,5 -8,1 -16,3 -25,4 -2,0 -3,0 -5,1 -18,2 -37,5 -56,6 h -3 c -21,2 -42,3 -65,4 -50,2 -99,2 -144,-1 -45,-2 -87,-7 -124,-13 -9,-2 -18,-3 -26,-5 h -1 c -8,-2 -16,-4 -23,-5 h -1 c -10,-3 -19,-5 -27,-8 -2,-1 -4,-2 -6,-2 -8,-3 -16,-6 -22,-9 -6,-3 -11,-6 -15,-10 -2,-1 -3,-3 -5,-4 -1,-1 -2,-1 -2,-2 -2,-2 -4,-5 -5,-8 0,-1 -1,-1 -1,-2 0,-1 -1,-2 -1,-2 v -4 l 3,201 v 4 c 0,1 0,2 1,2 0,1 1,2 1,2 1,3 3,5 5,8 l 2,2 3,3 c 1,0 2,1 2,1 4,4 9,7 15,10 5,3 10,5 16,7 2,1 4,1 6,2 1,0 2,1 3,1 1,0 3,1 4,1 8,3 17,6 27,8 h 1 c 2,1 4,1 6,2 2,1 4,1 6,2 2,0 4,1 7,2 2,0 3,1 5,1 h 2 c 2,0 4,1 5,1 2,0 4,1 6,1 2,0 4,1 6,1 2,0 4,1 6,1 2,0 3,1 5,1 2,0 3,1 5,1 2,0 3,1 5,1 2,0 4,1 5,1 2,0 3,0 5,1 2,0 3,0 5,1 h 1 c 1,0 3,0 4,1 2,0 3,0 5,1 2,0 3,0 5,1 2,0 3,0 5,1 2,0 3,0 5,1 2,0 3,0 5,1 2,0 3,0 5,1 h 252 c 9,-1 17,-1 26,-2 h 5 c 7,-1 13,-1 20,-2 l 24,-3 c 4,-1 8,-1 12,-2 h 2 c 1,0 2,0 3,-1 1,0 3,0 4,-1 3,-1 7,-1 10,-2 3,-1 6,-1 9,-2 h 1 c 3,-1 6,-1 9,-2 3,-1 6,-1 9,-2 2,0 4,-1 6,-1 h 2 c 3,-1 5,-1 8,-2 2,-1 5,-1 7,-2 2,-1 5,-1 7,-2 2,0 3,-1 5,-1 2,0 4,-1 6,-1 2,0 4,-1 6,-2 2,0 4,-1 5,-2 2,0 3,-1 5,-1 1,0 3,-1 4,-1 1,0 3,-1 4,-1 1,0 3,-1 4,-1 1,0 1,0 2,-1 h 2 c 1,0 2,-1 4,-1 1,0 2,-1 3,-1 1,0 2,-1 3,-1 1,0 2,-1 3,-1 1,0 2,-1 3,-1 1,0 2,-1 3,-1 1,0 2,-1 3,-1 1,0 2,-1 3,-1 1,0 2,-1 2,-1 1,0 2,-1 2,-1 1,0 1,-1 2,-1 h 1 c 1,0 1,-1 2,-1 1,0 1,-1 2,-1 1,0 1,-1 2,-1 1,0 1,-1 2,-1 1,0 1,-1 2,-1 1,0 1,-1 2,-1 1,0 1,-1 2,-1 1,0 1,-1 2,-1 1,0 1,-1 2,-1 1,0 1,-1 2,-1 l 1,-1 1,-1 1,-1 1,-1 1,-1 1,-1 1,-1 1,-1 1,-1 1,-1 1,-1 1,-1 c 0,0 0,-1 1,-1 0,0 0,-1 1,-1 0,0 0,-1 1,-1 v -7 c -1,-67 -1,-134 -2,-202 z" style="fill:url(#jy)" />
      <path d="m 4098,1796 c 0,3 0,5 -1,8 -1,3 -2,5 -4,7 -2,2 -4,5 -7,7 -3,2 -6,5 -10,7 -4,2 -8,5 -12,7 -9,4 -20,9 -32,13 h -1 c -6,2 -12,4 -19,6 -7,2 -14,4 -21,5 h -1 c -8,2 -15,3 -23,5 h -1 c -8,2 -17,3 -25,5 -8,1 -16,3 -25,4 -2,0 -3,0 -5,1 -18,2 -37,5 -56,6 h -3 c -21,2 -42,3 -65,4 -50,2 -99,2 -144,-1 -45,-2 -87,-7 -124,-13 -9,-2 -18,-3 -26,-5 h -1 c -8,-2 -16,-4 -23,-5 h -1 c -10,-3 -19,-5 -27,-8 -2,-1 -4,-2 -6,-2 -8,-3 -16,-6 -22,-9 -6,-3 -11,-6 -15,-10 -2,-1 -3,-3 -5,-4 -1,-1 -2,-1 -2,-2 -2,-2 -4,-5 -5,-8 0,-1 -1,-1 -1,-2 0,-1 -1,-2 -1,-2 v -4 l 3,201 v 4 c 0,1 0,2 1,2 0,1 1,2 1,2 1,3 3,5 5,8 l 2,2 3,3 c 1,0 2,1 2,1 4,4 9,7 15,10 5,3 10,5 16,7 2,1 4,1 6,2 1,0 2,1 3,1 1,0 3,1 4,1 8,3 17,6 27,8 h 1 c 2,1 4,1 6,2 2,1 4,1 6,2 2,0 4,1 7,2 2,0 3,1 5,1 h 2 c 2,0 4,1 5,1 2,0 4,1 6,1 2,0 4,1 6,1 2,0 4,1 6,1 2,0 3,1 5,1 2,0 3,1 5,1 2,0 3,1 5,1 2,0 4,1 5,1 2,0 3,0 5,1 2,0 3,0 5,1 h 1 c 1,0 3,0 4,1 2,0 3,0 5,1 2,0 3,0 5,1 2,0 3,0 5,1 2,0 3,0 5,1 2,0 3,0 5,1 2,0 3,0 5,1 h 252 c 9,-1 17,-1 26,-2 h 5 c 7,-1 13,-1 20,-2 l 24,-3 c 4,-1 8,-1 12,-2 h 2 c 1,0 2,0 3,-1 1,0 3,0 4,-1 3,-1 7,-1 10,-2 3,-1 6,-1 9,-2 h 1 c 3,-1 6,-1 9,-2 3,-1 6,-1 9,-2 2,0 4,-1 6,-1 h 2 c 3,-1 5,-1 8,-2 2,-1 5,-1 7,-2 2,-1 5,-1 7,-2 2,0 3,-1 5,-1 2,0 4,-1 6,-1 2,0 4,-1 6,-2 2,0 4,-1 5,-2 2,0 3,-1 5,-1 1,0 3,-1 4,-1 1,0 3,-1 4,-1 1,0 3,-1 4,-1 1,0 1,0 2,-1 h 2 c 1,0 2,-1 4,-1 1,0 2,-1 3,-1 1,0 2,-1 3,-1 1,0 2,-1 3,-1 1,0 2,-1 3,-1 1,0 2,-1 3,-1 1,0 2,-1 3,-1 1,0 2,-1 3,-1 1,0 2,-1 2,-1 1,0 2,-1 2,-1 1,0 1,-1 2,-1 h 1 c 1,0 1,-1 2,-1 1,0 1,-1 2,-1 1,0 1,-1 2,-1 1,0 1,-1 2,-1 1,0 1,-1 2,-1 1,0 1,-1 2,-1 1,0 1,-1 2,-1 1,0 1,-1 2,-1 1,0 1,-1 2,-1 1,0 1,-1 2,-1 l 1,-1 1,-1 1,-1 1,-1 1,-1 1,-1 1,-1 1,-1 1,-1 1,-1 1,-1 1,-1 c 0,0 0,-1 1,-1 0,0 0,-1 1,-1 0,0 0,-1 1,-1 v -7 c -1,-67 -1,-134 -2,-202 z" style="fill:url(#jx)" />
      <path d="m 4098,1796 c 0,3 0,5 -1,8 -1,3 -2,5 -4,7 -2,2 -4,5 -7,7 -3,2 -6,5 -10,7 -4,2 -8,5 -12,7 -9,4 -20,9 -32,13 h -1 c -6,2 -12,4 -19,6 -7,2 -14,4 -21,5 h -1 c -8,2 -15,3 -23,5 h -1 c -8,2 -17,3 -25,5 -8,1 -16,3 -25,4 -2,0 -3,0 -5,1 -18,2 -37,5 -56,6 h -3 c -21,2 -42,3 -65,4 -50,2 -99,2 -144,-1 -45,-2 -87,-7 -124,-13 -9,-2 -18,-3 -26,-5 h -1 c -8,-2 -16,-4 -23,-5 h -1 c -10,-3 -19,-5 -27,-8 -2,-1 -4,-2 -6,-2 -8,-3 -16,-6 -22,-9 -6,-3 -11,-6 -15,-10 -2,-1 -3,-3 -5,-4 -1,-1 -2,-1 -2,-2 -2,-2 -4,-5 -5,-8 0,-1 -1,-1 -1,-2 0,-1 -1,-2 -1,-2 v -4 l 3,201 v 4 c 0,1 0,2 1,2 0,1 1,2 1,2 1,3 3,5 5,8 l 2,2 3,3 c 1,0 2,1 2,1 4,4 9,7 15,10 5,3 10,5 16,7 2,1 4,1 6,2 1,0 2,1 3,1 1,0 3,1 4,1 8,3 17,6 27,8 h 1 c 2,1 4,1 6,2 2,1 4,1 6,2 2,0 4,1 7,2 2,0 3,1 5,1 h 2 c 2,0 4,1 5,1 2,0 4,1 6,1 2,0 4,1 6,1 2,0 4,1 6,1 2,0 3,1 5,1 2,0 3,1 5,1 2,0 3,1 5,1 2,0 4,1 5,1 2,0 3,0 5,1 2,0 3,0 5,1 h 1 c 1,0 3,0 4,1 2,0 3,0 5,1 2,0 3,0 5,1 2,0 3,0 5,1 2,0 3,0 5,1 2,0 3,0 5,1 2,0 3,0 5,1 h 252 c 9,-1 17,-1 26,-2 h 5 c 7,-1 13,-1 20,-2 l 24,-3 c 4,-1 8,-1 12,-2 h 2 c 1,0 2,0 3,-1 1,0 3,0 4,-1 3,-1 7,-1 10,-2 3,-1 6,-1 9,-2 h 1 c 3,-1 6,-1 9,-2 3,-1 6,-1 9,-2 2,0 4,-1 6,-1 h 2 c 3,-1 5,-1 8,-2 2,-1 5,-1 7,-2 2,-1 5,-1 7,-2 2,0 3,-1 5,-1 2,0 4,-1 6,-1 2,0 4,-1 6,-2 2,0 4,-1 5,-2 2,0 3,-1 5,-1 1,0 3,-1 4,-1 1,0 3,-1 4,-1 1,0 3,-1 4,-1 1,0 1,0 2,-1 h 2 c 1,0 2,-1 4,-1 1,0 2,-1 3,-1 1,0 2,-1 3,-1 1,0 2,-1 3,-1 1,0 2,-1 3,-1 1,0 2,-1 3,-1 1,0 2,-1 3,-1 1,0 2,-1 3,-1 1,0 2,-1 2,-1 1,0 2,-1 2,-1 1,0 1,-1 2,-1 h 1 c 1,0 1,-1 2,-1 1,0 1,-1 2,-1 1,0 1,-1 2,-1 1,0 1,-1 2,-1 1,0 1,-1 2,-1 1,0 1,-1 2,-1 1,0 1,-1 2,-1 1,0 1,-1 2,-1 1,0 1,-1 2,-1 1,0 1,-1 2,-1 l 1,-1 1,-1 1,-1 1,-1 1,-1 1,-1 1,-1 1,-1 1,-1 1,-1 1,-1 1,-1 c 0,0 0,-1 1,-1 0,0 0,-1 1,-1 0,0 0,-1 1,-1 v -7 c -1,-67 -1,-134 -2,-202 z" style="fill:url(#jw)" />
      <path d="m 3694,1720 c 48,-2 96,-2 140,1 44,2 86,6 122,12 36,6 67,13 91,22 24,9 40,19 47,30 7,11 4,22 -8,33 -12,11 -33,21 -60,29 -28,9 -63,17 -104,23 -41,6 -87,10 -137,13 -50,2 -99,2 -144,-1 -45,-2 -87,-7 -124,-13 -36,-6 -67,-14 -90,-23 -23,-9 -38,-20 -44,-31 -5,-11 -1,-22 12,-33 13,-10 35,-20 63,-29 28,-9 63,-16 103,-22 40,-6 85,-10 133,-12 z" style="fill:#7f7f80" />
      <path d="m 3696,1723 c 46,-2 92,-2 134,1 42,2 82,6 117,11 35,5 65,12 87,20 23,8 39,17 46,27 7,10 4,20 -8,30 -11,10 -31,19 -58,26 -27,8 -61,15 -100,20 -39,5 -83,9 -131,11 -48,2 -95,2 -138,-1 -44,-2 -84,-6 -119,-12 -35,-6 -65,-13 -87,-21 -22,-8 -37,-18 -42,-28 -5,-10 -1,-20 12,-29 13,-9 33,-18 61,-26 27,-8 61,-14 99,-19 38,-5 81,-9 128,-11 z" />
      <path d="m 3697,1741 c 45,-2 90,-1 132,0 42,2 80,5 114,10 34,5 63,11 85,17 22,7 38,15 45,24 7,9 4,18 -7,26 -11,8 -31,16 -57,23 -26,7 -59,13 -97,18 -38,5 -82,8 -128,10 -47,2 -93,1 -135,-1 -43,-2 -82,-5 -117,-10 -34,-5 -63,-11 -85,-18 -22,-7 -36,-15 -41,-24 -5,-9 -1,-18 12,-26 12,-8 33,-16 59,-23 26,-7 59,-13 97,-17 37,-5 80,-8 125,-9 z" style="fill:#707070" />
      <path d="m 3739,1745 c -41,0 -73,8 -73,19 0,10 33,19 73,19 40,0 73,-8 73,-19 0,-10 -33,-19 -73,-19 z m -205,35 c -46,0 -83,11 -83,25 0,14 37,25 83,25 46,0 83,-11 83,-25 0,-14 -37,-25 -83,-25 z m 196,65 c -44,0 -79,10 -82,23 43,2 89,2 135,1 10,0 20,-1 29,-1 -5,-13 -39,-22 -82,-22 z m 206,-65 c -46,0 -83,11 -83,25 0,14 37,25 83,25 46,0 83,-11 83,-25 0,-14 -37,-25 -83,-25 z" />
      <path d="m 3819,1776 v 1 c 0,1 -1,1 -1,2 l -2,2 c -1,1 -1,1 -2,1 -1,1 -2,1 -3,1 -2,1 -5,2 -8,3 -1,0 -3,1 -5,1 -2,0 -3,1 -5,1 -2,0 -4,1 -6,1 -2,0 -4,1 -6,1 -2,0 -4,1 -6,1 h -1 c -4,1 -9,1 -14,1 h -1 c -5,0 -10,1 -16,1 h -35 c -11,-1 -21,-2 -30,-3 -2,0 -4,-1 -6,-1 -2,0 -4,-1 -6,-1 -2,-1 -5,-1 -7,-2 h -2 c -2,-1 -4,-1 -5,-2 -1,-1 -3,-1 -4,-2 l -1,-1 c -1,-1 -1,-1 -1,-2 v -1 l 1,43 v 1 c 0,1 1,1 1,2 l 1,1 1,1 h 1 c 1,1 2,2 4,2 1,1 2,1 4,2 h 3 c 2,1 4,1 7,2 h 96 c 2,0 4,0 6,-1 h 42 v -43 z m 0,2 z m -1,2 z m -37,12 z m -127,38 z m 14,4 z m 19,3 z m 23,2 z m 105,-12 z" style="fill:url(#jv)" />
      <path d="m 3819,1776 v 1 c 0,1 -1,1 -1,2 l -2,2 c -1,1 -1,1 -2,1 -1,1 -2,1 -3,1 -2,1 -5,2 -8,3 -1,0 -3,1 -5,1 -2,0 -3,1 -5,1 -2,0 -4,1 -6,1 -2,0 -4,1 -6,1 -2,0 -4,1 -6,1 h -1 c -4,1 -9,1 -14,1 h -1 c -5,0 -10,1 -16,1 h -35 c -11,-1 -21,-2 -30,-3 -2,0 -4,-1 -6,-1 -2,0 -4,-1 -6,-1 -2,-1 -5,-1 -7,-2 h -2 c -2,-1 -4,-1 -5,-2 -1,-1 -3,-1 -4,-2 l -1,-1 c -1,-1 -1,-1 -1,-2 v -1 l 1,43 v 1 c 0,1 1,1 1,2 l 1,1 1,1 h 1 c 1,1 2,2 4,2 1,1 2,1 4,2 h 3 c 2,1 4,1 7,2 h 96 c 2,0 4,0 6,-1 h 42 v -43 z m 0,2 z m -1,2 z m -37,12 z m -127,38 z m 14,4 z m 19,3 z m 23,2 z m 105,-12 z" style="fill:url(#ju)" />
      <path d="m 3819,1776 v 1 c 0,1 -1,1 -1,2 l -2,2 c -1,1 -1,1 -2,1 -1,1 -2,1 -3,1 -2,1 -5,2 -8,3 -1,0 -3,1 -5,1 -2,0 -3,1 -5,1 -2,0 -4,1 -6,1 -2,0 -4,1 -6,1 -2,0 -4,1 -6,1 h -1 c -4,1 -9,1 -14,1 h -1 c -5,0 -10,1 -16,1 h -35 c -11,-1 -21,-2 -30,-3 -2,0 -4,-1 -6,-1 -2,0 -4,-1 -6,-1 -2,-1 -5,-1 -7,-2 h -2 c -2,-1 -4,-1 -5,-2 -1,-1 -3,-1 -4,-2 l -1,-1 c -1,-1 -1,-1 -1,-2 v -1 l 1,43 v 1 c 0,1 1,1 1,2 l 1,1 1,1 h 1 c 1,1 2,2 4,2 1,1 2,1 4,2 h 3 c 2,1 4,1 7,2 h 96 c 2,0 4,0 6,-1 h 42 v -43 z m 0,2 z m -1,2 z m -37,12 z m -127,38 z m 14,4 z m 19,3 z m 23,2 z m 105,-12 z" style="fill:url(#jt)" />
      <path d="m 3819,1776 v 1 c 0,1 -1,1 -1,2 l -2,2 c -1,1 -1,1 -2,1 -1,1 -2,1 -3,1 -2,1 -5,2 -8,3 -1,0 -3,1 -5,1 -2,0 -3,1 -5,1 -2,0 -4,1 -6,1 -2,0 -4,1 -6,1 -2,0 -4,1 -6,1 h -1 c -4,1 -9,1 -14,1 h -1 c -5,0 -10,1 -16,1 h -35 c -11,-1 -21,-2 -30,-3 -2,0 -4,-1 -6,-1 -2,0 -4,-1 -6,-1 -2,-1 -5,-1 -7,-2 h -2 c -2,-1 -4,-1 -5,-2 -1,-1 -3,-1 -4,-2 l -1,-1 c -1,-1 -1,-1 -1,-2 v -1 l 1,43 v 1 c 0,1 1,1 1,2 l 1,1 1,1 h 1 c 1,1 2,2 4,2 1,1 2,1 4,2 h 3 c 2,1 4,1 7,2 h 96 c 2,0 4,0 6,-1 h 42 v -43 z m 0,2 z m -1,2 z m -37,12 z m -127,38 z m 14,4 z m 19,3 z m 23,2 z m 105,-12 z" style="fill:url(#js)" />
      <path d="m 3721,1759 h 34 c 11,0 21,1 29,3 9,1 16,3 22,5 6,2 10,4 11,7 2,2 1,5 -2,7 -3,2 -8,4 -15,6 -7,2 -15,4 -25,5 -10,1 -21,2 -33,3 h -35 c -11,-1 -21,-2 -30,-3 -9,-1 -16,-3 -22,-5 -6,-2 -9,-4 -11,-7 -1,-2 0,-5 3,-7 3,-2 8,-4 15,-6 7,-2 15,-3 25,-5 10,-1 21,-2 32,-3 z" style="fill:#b1b1b1;fill-rule:nonzero" />
    </g>
  </g>
</svg>
